<svg width="18" height="20" viewBox="0 0 18 20" fill="none" xmlns="http://www.w3.org/2000/svg">
<path d="M13 14.9999C13.4167 14.9999 13.771 14.8543 14.063 14.5629C14.355 14.2716 14.5007 13.9173 14.5 13.5C14.4993 13.0826 14.3537 12.7286 14.063 12.438C13.7723 12.1473 13.418 12.0013 13 12C12.582 11.9986 12.228 12.1446 11.938 12.438C11.648 12.7313 11.502 13.0853 11.5 13.5C11.498 13.9146 11.644 14.2689 11.938 14.5629C12.232 14.8569 12.586 15.0026 13 14.9999ZM13 17.9999C13.5167 17.9999 13.9917 17.8789 14.425 17.6369C14.8583 17.3949 15.2083 17.0743 15.475 16.6749C15.1083 16.4583 14.7167 16.2916 14.3 16.1749C13.8833 16.0583 13.45 15.9999 13 15.9999C12.55 15.9999 12.1167 16.0583 11.7 16.1749C11.2833 16.2916 10.8917 16.4583 10.525 16.6749C10.7917 17.0749 11.1417 17.3959 11.575 17.6379C12.0083 17.8799 12.4833 18.0006 13 17.9999ZM8 19.9999C5.68333 19.4166 3.77067 18.0873 2.262 16.0119C0.753334 13.9366 -0.000666225 11.6326 4.41696e-07 9.09997V2.99999L8 0L16 2.99999V8.67497C15.6833 8.54164 15.3583 8.42064 15.025 8.31197C14.6917 8.2033 14.35 8.12464 14 8.07597V4.39998L8 2.14999L2 4.39998V9.09997C2 9.8833 2.10433 10.6666 2.313 11.45C2.52167 12.2333 2.81333 12.9793 3.188 13.688C3.56267 14.3966 4.01667 15.0506 4.55 15.6499C5.08333 16.2493 5.675 16.7493 6.325 17.1499C6.50833 17.6833 6.75 18.1916 7.05 18.6749C7.35 19.1583 7.69166 19.5916 8.075 19.9749C8.05833 19.9749 8.046 19.9793 8.038 19.9879C8.03 19.9966 8.01733 20.0006 8 19.9999ZM13 19.9999C11.6167 19.9999 10.4377 19.5123 9.463 18.5369C8.48833 17.5616 8.00066 16.3826 8 14.9999C7.99933 13.6173 8.487 12.4383 9.463 11.463C10.439 10.4876 11.618 9.99996 13 9.99996C14.382 9.99996 15.5613 10.4876 16.538 11.463C17.5147 12.4383 18.002 13.6173 18 14.9999C17.998 16.3826 17.5103 17.5619 16.537 18.5379C15.5637 19.5139 14.3847 20.0013 13 19.9999Z" fill="#0A6AA6"/>
</svg>
