<svg width="30" height="36" viewBox="0 0 30 36" fill="none" xmlns="http://www.w3.org/2000/svg">
<path d="M15 0L0 6.54545V16.3636C0 25.4455 6.4 33.9382 15 36C23.6 33.9382 30 25.4455 30 16.3636V6.54545L15 0ZM15 6.38182C15.9889 6.38182 16.9556 6.66973 17.7779 7.20915C18.6001 7.74857 19.241 8.51526 19.6194 9.41228C19.9978 10.3093 20.0969 11.2964 19.9039 12.2486C19.711 13.2009 19.2348 14.0756 18.5355 14.7622C17.8363 15.4487 16.9454 15.9163 15.9755 16.1057C15.0055 16.2951 14.0002 16.1979 13.0866 15.8263C12.173 15.4548 11.3921 14.8255 10.8427 14.0183C10.2932 13.211 10 12.2618 10 11.2909C10 9.98894 10.5268 8.74029 11.4645 7.81966C12.4021 6.89902 13.6739 6.38182 15 6.38182ZM15 19.3091C18.3333 19.3091 25 21.0927 25 24.3491C23.9054 25.9693 22.4194 27.2983 20.6745 28.2177C18.9297 29.1371 16.9802 29.6183 15 29.6183C13.0198 29.6183 11.0703 29.1371 9.32545 28.2177C7.58061 27.2983 6.09462 25.9693 5 24.3491C5 21.0927 11.6667 19.3091 15 19.3091Z" fill="#0A6AA6"/>
</svg>
