<?xml version="1.0" encoding="utf-8"?>
<!DOCTYPE svg PUBLIC "-//W3C//DTD SVG 1.1//EN" "http://www.w3.org/Graphics/SVG/1.1/DTD/svg11.dtd">
<svg version="1.1" id="Layer_1" xmlns="http://www.w3.org/2000/svg" xmlns:xlink="http://www.w3.org/1999/xlink" x="0px" y="0px"
	 viewBox="0 0 2560 1600" enable-background="new 0 0 2560 1600" xml:space="preserve">
<g>
	<g id="Ebene_1">
		<path fill="#FF007B" d="M346.6123,838.8066c11.848-12.7403,26.3945-27.8785,28.1451-46.1214
			c1.5306-15.8293-8.6412-29.2604-18.816-40.2222c-6.841-7.3709-14.2026-14.5063-18.8656-23.5441
			c-2.1874-4.223-4.0216-8.6442-6.5096-12.7155c-1.9953-3.2471-4.821-5.8-6.7729-9.0626
			c-3.1665-5.2888-5.7102-13.6573-11.7147-16.4706c-7.058-3.2997-15.7146,1.8745-21.1956,5.9735
			c-15.6124,11.6713-26.8189,27.4975-36.2719,44.343c-9.9177,17.6852-13.2267,36.7211-16.2135,56.5379
			c-3.1107,20.6688-4.4151,42.0844-1.735,62.8708c1.2579,9.7256,3.5754,19.256,6.4786,28.6067
			c1.23,3.9318,2.3764,8.1671,4.5452,11.7023c1.735,2.8443,5.2857,6.4538,4.9728,10.0479
			c-0.0124,0.0558-4.5545-2.4229-4.8984-3.4267c-1.2021-3.5072-3.6839-6.2864-7.6342-6.1625
			c-3.9813,0.124-7.6559,1.4407-10.4289-2.3764c-2.6924-3.7149-3.0054-8.8674-3.938-13.2112
			c-2.2587-10.4847-5.4282-20.833-8.0184-31.2464c-2.8195-11.3151-5.0719-22.819-8.4801-33.9854
			c-1.8776-6.1594-5.8806-21.5704-13.5582-23.1536c-5.4375-1.1247,0.8211,6.0851,1.4345,6.8844
			c3.1262,4.0371,5.7412,8.4429,7.8666,13.0842c8.3283,18.1963,11.5071,39.0728,16.9106,58.2637
			c2.8195,10.0323,5.9487,19.9468,9.0471,29.8925c1.7505,5.5955-9.8309,2.1037-11.9254,1.5336
			c-18.2924-5.0068-37.6166-7.7613-56.4016-10.209c-9.3786-1.2208-18.8904-2.5591-27.7578-5.9828
			c-4.2106-1.6235-7.7737-3.8264-11.2995-6.6396c-1.3756-1.0968-8.1981-5.9612-6.178-0.2355
			c2.5003,7.0952,16.0275,9.1122,22.2242,10.4165c10.8813,2.2835,21.9422,3.5012,32.9381,5.0999
			c9.58,1.3849,19.1259,3.058,28.6563,4.7188c5.0657,0.8892,20.043,0.8086,22.6146,6.1935
			c2.1069,4.4337-0.3873,8.0587,3.4763,11.7333c0.9388,0.8892,7.0331,7.9626,8.0401,7.7581
			c-2.9496,0.5268-6.2958-2.0015-8.7341-3.2904c-3.6064-1.8931-7.6993-2.869-11.6496-3.749
			c-10.2585-2.2897-20.6843-3.9286-31.2031-4.3314c-20.7835-0.7994-41.7838,2.4259-61.9321,7.2903
			c-19.5256,4.7094-38.9488,9.9456-55.6115,21.5859c-16.4365,11.4792-32.492,24.8857-42.106,42.8372
			c-2.5716,4.793-5.7164,11.5071-3.2563,16.9446c3.5383,7.8046,17.8339,12.226,24.8856,16.074
			c8.1795,4.4677,17.3939,6.838,25.1738,12.0742c8.8581,5.9612,16.9416,13.0656,26.094,18.6238
			c12.6721,7.7118,27.3983,11.0177,41.3686,4.6506c9.7132-4.4275,17.081-12.9602,24.8113-20.074
			c0.8985-0.8396,11.6589-11.5133,12.6752-10.6179c-0.5205,7.7614-2.9279,14.8131-2.491,22.7137
			c0.4833,8.855,3.3462,16.6597,5.5336,25.1427c4.1579,16.1267,15.2499,30.4937,29.97,38.7321
			c6.0603,3.3926,13.0749,6.6768,19.8973,8.099c3.5042,0.7312,7.3027,0.8458,10.6272,2.2245
			c4.0526,1.6917,7.0363,5.0874,10.9773,6.9744c6.7636,3.2316,13.2267,1.8558,20.266,0.725
			c7.3151-1.1619,14.6767-0.4585,21.7501-3.1045c6.2214-2.3082,11.7054-6.553,17.7626-9.3414
			c6.5591-3.024,14.0911-6.1595,18.3048-12.3593c1.9984-2.931,2.8473-6.2058,5.3415-8.8735
			c2.9558-3.1727,6.5715-5.7815,8.3871-9.8495c2.9372-6.5653,0.8582-14.7635-1.0007-21.3319
			c-0.818-2.9063-2.206-5.8434-2.6552-8.8363c-0.4772-3.1697,0.2603-6.4352-0.6444-9.5459
			c-2.6924-9.1122-6.9526-17.5458-11.315-25.9421c-4.5452-8.731-9.2454-17.3474-14.2336-25.8554
			c-0.2881-0.4957-7.4235-10.8967-5.7164-12.5048c1.4903-1.4005,26.3449,22.2303,29.2635,24.4395
			c1.8156,1.3788,15.631,12.8022,17.4249,10.8348c4.2354-4.6351-41.1734-42.0781-39.299-43.4166
			c3.0859-2.1968,13.2701,4.7528,15.758,5.9147c8.4398,3.9751,16.9261,7.7426,25.6137,11.1321
			c6.6645,2.5902,13.4467,4.9635,20.4674,6.4135c8.0928,1.6669,16.3808,1.5988,24.5324,2.9311
			c6.6428,1.0875,15.8912,3.2129,21.9143-0.8583c2.4817-1.6855,4.0898-4.2818,5.8155-6.6645
			c2.5251-3.4763,5.8465-5.2299,8.982-8.0246c6.0076-5.3662,8.824-13.0779,11.724-20.3776
			c2.8814-7.2624,7.4824-13.9114,8.7032-21.7501c1.0225-6.5591,0.3315-13.4435,0.8985-20.0956
			c0.7095-8.3189-0.694-14.8873-6.2896-21.3163c-6.113-7.0208-6.4755-14.9835-10.5529-22.9988
			c-3.7861-7.4235-8.1114-15.7642-14.2708-21.4868c-5.3074-4.9294-11.8603-10.1346-18.2924-13.5056
			c-6.8566-3.5817-14.7294-3.9379-22.1313-5.6885c-7.8976-1.8652-16.61-2.7885-24.7121-1.8095
			c-3.687,0.4524-7.2221,1.5957-10.7759,2.6305c-2.1347,0.6197-4.2881,1.1929-6.4972,1.5399
			c-1.4252-1.3632,0.8366-3.1602,1.735-3.8419"/>
	</g>
	<g id="flugroute">
		<g>
			<path fill="none" stroke="#FF007B" stroke-width="9.2949" stroke-miterlimit="10" d="M356.6198,1025.0149
				c0,0,2.6119,2.7389,7.5227,7.7954"/>
			<path fill="none" stroke="#FF007B" stroke-width="9.2949" stroke-miterlimit="10" stroke-dasharray="21.5847,21.5847" d="
				M379.2375,1048.2212c82.7094,83.6327,373.4702,367.6454,559.3068,421.6799c218.471,63.5555,554.0396-9.1215,742.6956-289.1621
				c188.6747-280.0407,266.2314-348.3739,371.4874-443.7089c105.2559-95.335,186.6917-228.4011,196.6216-405.1659
				c9.9302-176.7647-114.2375-288.1799-274.0793-291.9567c-164.3497-3.8853-237.5103,144.8119-259.0248,200.2065"/>
			<path fill="none" stroke="#FF007B" stroke-width="9.2949" stroke-miterlimit="10" d="M1712.5017,250.2549
				c-2.3052,6.5374-3.3772,10.2957-3.3772,10.2957s-0.9667-3.7831-3.1478-10.3639"/>
			<path fill="none" stroke="#FF007B" stroke-width="9.2949" stroke-miterlimit="10" stroke-dasharray="21.7777,21.7777" d="
				M1698.3734,229.7843c-25.3441-61.8298-100.5431-194.9487-277.2273-190.8372
				c-228.5157,5.3167-295.9319,215.4719-287.9878,306.8317c7.944,91.3598,71.5027,311.8138,287.9878,466.7292
				c216.4821,154.9155,321.0468,363.5865,368.6987,429.1158c47.652,65.5292,230.2198,210.3999,460.0367,266.0115
				c157.041,38.0007,235.0657,49.1082,268.7412,52.3303"/>
			<path fill="none" stroke="#FF007B" stroke-width="9.2949" stroke-miterlimit="10" d="M2529.5259,1560.8674
				c7.656,0.505,10.8254,0.4027,10.8254,0.4027"/>
		</g>
	</g>
</g>
</svg>
