<svg xmlns="http://www.w3.org/2000/svg" version="1.1" xmlns:xlink="http://www.w3.org/1999/xlink" xmlns:svgjs="http://svgjs.dev/svgjs" width="1441" height="65" preserveAspectRatio="none" viewBox="0 0 1441 65"><g mask="url(&quot;#SvgjsMask1432&quot;)" fill="none"><rect width="1441" height="65" x="0" y="0" fill="#1e3266"></rect><path d="M1465.0166666666662 65L0 65 L0 18.22Q65.05 -36.82, 120.08333333333333 28.23Q148.73 -15.17, 192.13333333333333 13.48Q253.83 -44.9, 312.21666666666664 16.8Q354.82 -12.65, 384.26666666666665 29.96Q444.81 -29.58, 504.34999999999997 30.96Q555.59 -37.88, 624.4333333333333 13.36Q668.99 -14.13, 696.4833333333332 30.43Q731.21 -6.89, 768.5333333333332 27.83Q822.77 -38.01, 888.6166666666666 16.23Q930.02 -14.42, 960.6666666666665 26.98Q992.04 -13.69, 1032.7166666666665 17.68Q1068.82 -18.26, 1104.7666666666664 17.84Q1171.24 -35.77, 1224.8499999999997 30.71Q1282.08 -32.15, 1344.933333333333 25.08Q1399.54 -40.39, 1465.0166666666662 14.22z" fill="#182f5d"></path><path d="M1513.0499999999997 65L0 65 L0 41.96Q53.66 -24.47, 120.08333333333333 29.19Q157.51 -5.43, 192.13333333333333 32Q253.58 -26.64, 312.21666666666664 34.81Q375.19 -22.3, 432.29999999999995 40.68Q485.45 -26.25, 552.3833333333333 26.9Q620.65 -24.92, 672.4666666666667 43.35Q728.9 -20.3, 792.5500000000001 36.14Q829.72 1.26, 864.6 38.43Q894.42 -3.79, 936.65 26.03Q1000.17 -30.53, 1056.7333333333333 32.99Q1122.18 -21.65, 1176.8166666666666 43.79Q1205.53 0.45, 1248.8666666666666 29.16Q1283.66 -8.1, 1320.9166666666665 26.69Q1389.43 -24.88, 1440.9999999999998 43.63Q1476.07 6.66, 1513.0499999999997 41.73z" fill="#25467d"></path><path d="M1513.0499999999997 65L0 65 L0 48.03Q59.29 -12.77, 120.08333333333333 46.52Q154.12 8.51, 192.13333333333333 42.55Q259.31 -10.35, 312.21666666666664 56.83Q370.26 -5.21, 432.29999999999995 52.84Q486.72 -12.83, 552.3833333333333 41.59Q612.41 -18.47, 672.4666666666667 41.56Q715.37 12.41, 744.5166666666667 55.31Q775.18 13.93, 816.5666666666666 44.59Q879.84 -12.22, 936.65 51.06Q971.84 14.21, 1008.6999999999999 49.4Q1064.43 -14.95, 1128.7833333333333 40.78Q1195.01 -13.07, 1248.8666666666666 53.16Q1302.14 -13.65, 1368.9499999999998 39.63Q1409.84 8.47, 1440.9999999999998 49.36Q1476.16 12.47, 1513.0499999999997 47.63z" fill="#356cb1"></path><path d="M1465.0166666666664 65L0 65 L0 60.91Q39.95 28.8, 72.05 68.75Q101.08 25.73, 144.1 54.76Q178.98 17.59, 216.14999999999998 52.47Q258.37 22.64, 288.2 64.86Q347.91 4.49, 408.2833333333333 64.2Q439.17 23.04, 480.3333333333333 53.92Q517.12 18.66, 552.3833333333333 55.45Q619.7 2.69, 672.4666666666667 70.01Q730.9 8.36, 792.5500000000001 66.79Q821.92 24.11, 864.6 53.48Q904.65 21.48, 936.65 61.53Q996.01 0.81, 1056.7333333333333 60.17Q1091.54 22.93, 1128.7833333333333 57.73Q1167.07 23.96, 1200.8333333333333 62.25Q1260.56 1.89, 1320.9166666666665 61.62Q1354.62 23.27, 1392.9666666666665 56.98Q1429.26 21.22, 1465.0166666666664 57.51z" fill="white"></path></g><defs><mask id="SvgjsMask1432"><rect width="1441" height="65" fill="#ffffff"></rect></mask></defs></svg>