<svg width="20" height="20" viewBox="0 0 20 20" fill="none" xmlns="http://www.w3.org/2000/svg">
<path d="M14.1667 11.6667V16.6667M11.6667 14.1667H16.6667M5.00004 8.33333H6.66671C7.58718 8.33333 8.33337 7.58714 8.33337 6.66667V5C8.33337 4.07953 7.58718 3.33333 6.66671 3.33333H5.00004C4.07957 3.33333 3.33337 4.07953 3.33337 5V6.66667C3.33337 7.58714 4.07957 8.33333 5.00004 8.33333ZM13.3334 8.33333H15C15.9205 8.33333 16.6667 7.58714 16.6667 6.66667V5C16.6667 4.07953 15.9205 3.33333 15 3.33333H13.3334C12.4129 3.33333 11.6667 4.07953 11.6667 5V6.66667C11.6667 7.58714 12.4129 8.33333 13.3334 8.33333ZM5.00004 16.6667H6.66671C7.58718 16.6667 8.33337 15.9205 8.33337 15V13.3333C8.33337 12.4129 7.58718 11.6667 6.66671 11.6667H5.00004C4.07957 11.6667 3.33337 12.4129 3.33337 13.3333V15C3.33337 15.9205 4.07957 16.6667 5.00004 16.6667Z" stroke="#0A6AA6" stroke-width="1.5" stroke-linecap="round" stroke-linejoin="round"/>
</svg>
