<svg width="20" height="20" viewBox="0 0 20 20" fill="none" xmlns="http://www.w3.org/2000/svg">
<path d="M7.69231 0.769226C6.42692 0.769226 5.38462 1.81153 5.38462 3.07692V4.61538H6.92308V3.07692C6.92308 2.64384 7.25923 2.30769 7.69231 2.30769H12.3077C12.7408 2.30769 13.0769 2.64384 13.0769 3.07692V4.61538H14.6154V3.07692C14.6154 1.81153 13.5731 0.769226 12.3077 0.769226H7.69231ZM2.30769 5.38461C1.69565 5.38461 1.10868 5.62774 0.675907 6.06052C0.243131 6.49329 0 7.08027 0 7.6923L0 16.9231C0 17.5351 0.243131 18.1221 0.675907 18.5549C1.10868 18.9876 1.69565 19.2308 2.30769 19.2308H17.6923C18.9662 19.2308 20 18.1969 20 16.9231V7.6923C20 7.08027 19.7569 6.49329 19.3241 6.06052C18.8913 5.62774 18.3043 5.38461 17.6923 5.38461H2.30769ZM10 7.62C10.6157 7.61959 11.2255 7.74057 11.7944 7.976C12.3633 8.21144 12.8802 8.55671 13.3156 8.99209C13.751 9.42746 14.0963 9.94439 14.3317 10.5133C14.5671 11.0822 14.6881 11.692 14.6877 12.3077C14.6881 12.9234 14.5671 13.5331 14.3317 14.1021C14.0963 14.671 13.751 15.1879 13.3156 15.6233C12.8802 16.0587 12.3633 16.4039 11.7944 16.6394C11.2255 16.8748 10.6157 16.9958 10 16.9954C9.38429 16.9958 8.77454 16.8748 8.20562 16.6394C7.6367 16.4039 7.11977 16.0587 6.6844 15.6233C6.24903 15.1879 5.90375 14.671 5.66831 14.1021C5.43288 13.5331 5.3119 12.9234 5.31231 12.3077C5.3119 11.692 5.43288 11.0822 5.66831 10.5133C5.90375 9.94439 6.24903 9.42746 6.6844 8.99209C7.11977 8.55671 7.6367 8.21144 8.20562 7.976C8.77454 7.74057 9.38429 7.61959 10 7.62ZM9.23077 10V11.5385H7.69231V13.0769H9.23077V14.6154H10.7692V13.0769H12.3077V11.5385H10.7692V10H9.23077Z" fill="#0A6AA6"/>
</svg>
