<svg width="240" height="80" viewBox="0 0 240 80" fill="none" xmlns="http://www.w3.org/2000/svg">
<g clip-path="url(#clip0_35_603)">
<path d="M238.471 70.5529C238.471 71.5597 238.295 72.5566 237.952 73.4866C237.609 74.4167 237.106 75.2616 236.473 75.9732C235.839 76.6847 235.087 77.2489 234.26 77.6334C233.432 78.018 232.545 78.2154 231.65 78.2143H8.41389C6.60455 78.2165 4.86854 77.4105 3.58765 75.9738C2.30675 74.537 1.58585 72.5871 1.5835 70.5529V9.45516C1.58585 7.41999 2.30647 5.46905 3.58711 4.03071C4.86775 2.59238 6.60374 1.78422 8.41389 1.78369H231.648C232.544 1.78369 233.431 1.98213 234.259 2.36769C235.087 2.75324 235.839 3.31835 236.472 4.03073C237.106 4.74312 237.608 5.58883 237.951 6.51957C238.294 7.4503 238.47 8.44782 238.47 9.45516L238.471 70.5529Z" fill="white"/>
<path d="M231.65 79.9967H8.4139C6.185 79.9962 4.04732 79.0015 2.46992 77.231C0.892518 75.4606 0.00424098 73.0588 0 70.5529L0 9.45717C0.00329733 6.94996 0.890988 4.54659 2.46834 2.77429C4.04569 1.00199 6.18389 0.00547311 8.4139 0.00335693L231.648 0.00335693C233.878 0.00652904 236.015 1.00338 237.593 2.77545C239.17 4.54753 240.058 6.95029 240.062 9.45717V70.5529C240.066 75.7619 236.285 79.9967 231.65 79.9967Z" fill="#A6A6A6"/>
<path d="M238.471 70.5529C238.471 71.5597 238.295 72.5566 237.952 73.4866C237.609 74.4167 237.106 75.2616 236.473 75.9732C235.839 76.6847 235.087 77.2489 234.26 77.6334C233.432 78.018 232.545 78.2154 231.65 78.2143H8.41389C6.60455 78.2165 4.86854 77.4105 3.58765 75.9738C2.30675 74.537 1.58585 72.5871 1.5835 70.5529V9.45516C1.58585 7.41999 2.30647 5.46905 3.58711 4.03071C4.86775 2.59238 6.60374 1.78422 8.41389 1.78369H231.648C232.544 1.78369 233.431 1.98213 234.259 2.36769C235.087 2.75324 235.839 3.31835 236.472 4.03073C237.106 4.74312 237.608 5.58883 237.951 6.51957C238.294 7.4503 238.47 8.44782 238.47 9.45516L238.471 70.5529Z" fill="black"/>
<path d="M53.6044 39.579C53.5528 33.1317 58.2997 29.9951 58.5168 29.8491C55.8284 25.4423 51.6615 24.8401 50.1972 24.7921C46.6975 24.378 43.3027 27.1466 41.52 27.1466C39.7016 27.1466 36.9563 24.8321 33.9974 24.9001C30.1899 24.9662 26.6279 27.4446 24.6744 31.2934C20.6427 39.1409 23.6495 50.6731 27.5122 57.0163C29.4444 60.1249 31.7023 63.5916 34.6575 63.4695C37.5487 63.3375 38.6287 61.3991 42.1178 61.3991C45.5748 61.3991 46.5889 63.4695 49.6029 63.3915C52.7059 63.3375 54.6594 60.2709 56.524 57.1363C58.757 53.5777 59.6537 50.069 59.6893 49.8889C59.6181 49.8609 53.6649 47.3044 53.6044 39.579ZM47.9109 20.6193C49.4659 18.4329 50.5299 15.4583 50.2345 12.4398C47.9838 12.5518 45.1691 14.1901 43.5483 16.3285C42.1142 18.2129 40.8332 21.3015 41.1641 24.206C43.6924 24.4181 46.2882 22.7717 47.9109 20.6193Z" fill="white"/>
<path d="M231.65 0.00335693H112.078L158.912 79.9967H231.65C233.879 79.9946 236.017 78.9986 237.594 77.2272C239.172 75.4557 240.06 73.0534 240.064 70.5469V9.45717C240.06 6.95012 239.172 4.54706 237.595 2.77487C236.018 1.00268 233.88 0.00600127 231.65 0.00335693Z" fill="url(#paint0_linear_35_603)"/>
<path d="M95.4816 63.0234H91.441L89.2277 55.2039H81.5344L79.426 63.0234H75.4922L83.1161 36.4023H87.8239L95.4816 63.0234ZM88.5605 51.9233L86.5589 44.972C86.3472 44.2618 85.9486 42.5895 85.365 39.957H85.2939C85.059 41.0892 84.6836 42.7615 84.1694 44.972L82.2016 51.9233H88.5605ZM115.049 53.1895C115.049 56.4542 114.261 59.0347 112.683 60.929C111.27 62.6153 109.514 63.4575 107.42 63.4575C105.159 63.4575 103.533 62.5513 102.545 60.735V70.8069H98.7518V50.137C98.7518 48.0866 98.7038 45.9842 98.6113 43.8277H101.947L102.159 46.8703H102.23C103.495 44.5779 105.415 43.4317 107.991 43.4317C110.005 43.4317 111.687 44.3258 113.032 46.1162C114.375 47.9105 115.049 50.267 115.049 53.1895ZM111.185 53.3456C111.185 51.4772 110.811 49.9369 110.061 48.7227C109.24 47.4604 108.139 46.8283 106.758 46.8283C105.822 46.8283 104.972 47.1804 104.212 47.8745C103.451 48.5746 102.953 49.4888 102.719 50.621C102.615 51.0445 102.556 51.4802 102.543 51.9193V55.1219C102.543 56.5162 102.924 57.6944 103.686 58.6586C104.447 59.6188 105.436 60.1009 106.653 60.1009C108.082 60.1009 109.194 59.4787 109.989 58.2445C110.786 57.0063 111.185 55.374 111.185 53.3456ZM134.687 53.1895C134.687 56.4542 133.898 59.0347 132.32 60.929C130.906 62.6153 129.151 63.4575 127.056 63.4575C124.794 63.4575 123.168 62.5513 122.18 60.735V70.8069H118.387V50.137C118.387 48.0866 118.339 45.9842 118.247 43.8277H121.583L121.794 46.8703H121.866C123.129 44.5779 125.049 43.4317 127.627 43.4317C129.639 43.4317 131.32 44.3258 132.669 46.1162C134.01 47.9105 134.687 50.267 134.687 53.1895ZM130.82 53.3456C130.82 51.4772 130.445 49.9369 129.694 48.7227C128.874 47.4604 127.776 46.8283 126.395 46.8283C125.46 46.8283 124.609 47.1804 123.846 47.8745C123.084 48.5746 122.588 49.4888 122.355 50.621C122.239 51.1491 122.177 51.5792 122.177 51.9193V55.1219C122.177 56.5162 122.559 57.6944 123.317 58.6586C124.079 59.6168 125.068 60.1009 126.289 60.1009C127.719 60.1009 128.831 59.4787 129.625 58.2445C130.422 57.0063 130.82 55.374 130.82 53.3456ZM156.642 55.556C156.642 57.8224 155.938 59.6648 154.537 61.087C152.996 62.6393 150.845 63.4175 148.088 63.4175C145.54 63.4175 143.497 62.8654 141.956 61.7592L142.834 58.2045C144.497 59.3127 146.324 59.8648 148.314 59.8648C149.744 59.8648 150.856 59.5007 151.65 58.7786C152.445 58.0545 152.847 57.0863 152.847 55.878C152.847 54.7958 152.514 53.8897 151.861 53.1515C151.205 52.4154 150.119 51.7293 148.595 51.0991C144.449 49.3608 142.375 46.8183 142.375 43.4737C142.375 41.2893 143.108 39.5009 144.57 38.1026C146.033 36.7064 147.972 36.0082 150.385 36.0082C152.539 36.0082 154.334 36.4303 155.76 37.2725L154.808 40.7491C153.466 39.933 151.952 39.5249 150.258 39.5249C148.92 39.5249 147.871 39.895 147.12 40.6311C146.488 41.2893 146.168 42.0914 146.168 43.0436C146.168 44.0938 146.533 44.966 147.258 45.6501C147.888 46.2802 149.038 46.9663 150.699 47.7025C152.738 48.6267 154.237 49.7029 155.196 50.9391C156.162 52.1753 156.642 53.7176 156.642 55.556ZM169.216 47.0284H165.035V56.3481C165.035 58.7186 165.771 59.9008 167.248 59.9008C167.926 59.9008 168.488 59.8368 168.933 59.7028L169.038 62.9414C168.291 63.2555 167.307 63.4135 166.088 63.4135C164.59 63.4135 163.419 62.8994 162.574 61.8712C161.732 60.843 161.309 59.1207 161.309 56.6962V47.0204H158.818V43.8197H161.309V40.3051L165.035 39.0408V43.8197H169.216V47.0284ZM188.043 53.2676C188.043 56.2181 187.293 58.6406 185.794 60.5349C184.227 62.4853 182.142 63.4575 179.542 63.4575C177.034 63.4575 175.039 62.5233 173.552 60.657C172.064 58.7866 171.321 56.4302 171.321 53.5876C171.321 50.613 172.089 48.1766 173.621 46.2822C175.157 44.3858 177.224 43.4377 179.823 43.4377C182.329 43.4377 184.341 44.3738 185.864 46.2422C187.319 48.0546 188.043 50.395 188.043 53.2676ZM184.111 53.3656C184.111 51.6072 183.773 50.0989 183.095 48.8367C182.3 47.3124 181.161 46.5503 179.686 46.5503C178.167 46.5503 177.002 47.3124 176.208 48.8367C175.528 50.0989 175.19 51.6332 175.19 53.4456C175.19 55.2059 175.528 56.7182 176.208 57.9765C177.028 59.5007 178.172 60.2629 179.654 60.2629C181.104 60.2629 182.241 59.4847 183.063 57.9384C183.761 56.6462 184.111 55.1279 184.111 53.3656ZM200.379 47.5785C199.984 47.4984 199.584 47.4589 199.183 47.4604C197.849 47.4604 196.817 48.0245 196.091 49.1608C195.461 50.161 195.144 51.4252 195.144 52.9515V63.0234H191.351V49.8729C191.354 47.8578 191.318 45.8429 191.241 43.8297H194.545L194.683 47.5024H194.788C195.19 46.2402 195.82 45.222 196.685 44.4599C197.477 43.7939 198.438 43.4332 199.427 43.4317C199.777 43.4317 200.094 43.4597 200.375 43.5097L200.379 47.5785ZM217.343 52.5174C217.353 53.1657 217.307 53.8136 217.205 54.4518H205.825C205.868 56.3481 206.419 57.8004 207.476 58.8006C208.435 59.6928 209.675 60.1409 211.198 60.1409C212.883 60.1409 214.42 59.8408 215.803 59.2347L216.397 62.1933C214.781 62.9854 212.874 63.3795 210.673 63.3795C208.026 63.3795 205.948 62.5033 204.435 60.755C202.926 59.0047 202.17 56.6522 202.17 53.7056C202.17 50.8131 202.873 48.4026 204.28 46.4802C205.754 44.4279 207.745 43.4017 210.25 43.4017C212.71 43.4017 214.573 44.4279 215.838 46.4802C216.84 48.1066 217.343 50.1229 217.343 52.5174ZM213.726 51.4112C213.753 50.1449 213.504 49.0547 212.99 48.1326C212.333 46.9443 211.323 46.3522 209.969 46.3522C208.729 46.3522 207.718 46.9303 206.949 48.0906C206.318 49.0127 205.942 50.1209 205.827 51.4072L213.726 51.4112Z" fill="white"/>
<path d="M80.4399 26.9905C79.3849 26.9905 78.4721 26.9325 77.7124 26.8345V13.964C78.775 13.7795 79.8487 13.6885 80.9239 13.692C85.2741 13.692 87.2774 16.0985 87.2774 20.0212C87.2774 24.5461 84.9111 26.9905 80.4399 26.9905ZM81.0769 15.3423C80.4898 15.3423 79.9898 15.3823 79.5752 15.4783V25.2622C79.7994 25.3022 80.23 25.3202 80.8349 25.3202C83.6852 25.3202 85.3079 23.4959 85.3079 20.0792C85.3079 17.0326 83.84 15.3423 81.0769 15.3423ZM93.5207 27.0886C91.0689 27.0886 89.4801 25.0302 89.4801 22.2356C89.4801 19.3231 91.1027 17.2467 93.6595 17.2467C96.0756 17.2467 97.7001 19.207 97.7001 22.0816C97.7001 25.0302 96.0258 27.0886 93.5207 27.0886ZM93.5919 18.779C92.245 18.779 91.3821 20.1952 91.3821 22.1756C91.3821 24.118 92.2628 25.5343 93.5741 25.5343C94.8854 25.5343 95.7661 24.02 95.7661 22.1356C95.7661 20.2152 94.9031 18.779 93.5919 18.779ZM111.681 17.4407L109.057 26.8745H107.347L106.26 22.7777C105.99 21.7756 105.764 20.7588 105.586 19.7311H105.55C105.413 20.7593 105.153 21.7895 104.877 22.7777L103.721 26.8745H101.993L99.5238 17.4407H101.44L102.39 21.9256C102.614 22.9938 102.803 24.002 102.959 24.9541H102.995C103.132 24.16 103.356 23.1678 103.685 21.9456L104.877 17.4427H106.397L107.537 21.8496C107.813 22.9178 108.037 23.966 108.212 24.9561H108.261C108.382 23.986 108.573 22.9558 108.831 21.8496L109.85 17.4427L111.681 17.4407ZM121.342 26.8745H119.478V21.4575C119.478 19.7892 118.908 18.953 117.786 18.953C116.681 18.953 115.921 20.0212 115.921 21.2634V26.8745H114.056V20.1372C114.056 19.3031 114.039 18.4089 113.987 17.4387H115.627L115.715 18.895H115.766C116.268 17.8868 117.286 17.2467 118.426 17.2467C120.188 17.2467 121.344 18.761 121.344 21.2254L121.342 26.8745ZM126.484 26.8745H124.618V13.1119H126.484V26.8745ZM133.283 27.0886C130.833 27.0886 129.242 25.0302 129.242 22.2356C129.242 19.3231 130.865 17.2467 133.42 17.2467C135.837 17.2467 137.46 19.207 137.46 22.0816C137.462 25.0302 135.786 27.0886 133.283 27.0886ZM133.352 18.779C132.005 18.779 131.142 20.1952 131.142 22.1756C131.142 24.118 132.025 25.5343 133.332 25.5343C134.645 25.5343 135.524 24.02 135.524 22.1356C135.526 20.2152 134.665 18.779 133.352 18.779ZM144.812 26.8745L144.677 25.7883H144.627C144.057 26.6625 143.227 27.0886 142.173 27.0886C140.67 27.0886 139.602 25.9043 139.602 24.312C139.602 21.9836 141.398 20.7793 144.506 20.7793V20.6053C144.506 19.3631 143.92 18.741 142.764 18.741C141.937 18.741 141.211 18.975 140.572 19.4411L140.193 18.0628C140.969 17.5187 141.937 17.2467 143.074 17.2467C145.266 17.2467 146.372 18.5469 146.372 21.1494V24.6241C146.372 25.5763 146.41 26.3144 146.493 26.8765L144.812 26.8745ZM144.556 22.1756C142.485 22.1756 141.446 22.7397 141.446 24.078C141.446 25.0682 141.981 25.5523 142.725 25.5523C143.673 25.5523 144.556 24.7381 144.556 23.6319V22.1756ZM155.427 26.8745L155.339 25.3602H155.288C154.752 26.5044 153.852 27.0886 152.594 27.0886C150.571 27.0886 149.073 25.0882 149.073 22.2736C149.073 19.3231 150.626 17.2447 152.747 17.2447C153.87 17.2447 154.665 17.6708 155.113 18.5269H155.151V13.1119H157.017V24.332C157.017 25.2442 157.037 26.0984 157.087 26.8745H155.427ZM155.151 21.3235C155.151 20.0032 154.373 18.877 153.187 18.877C151.804 18.877 150.959 20.2552 150.959 22.1956C150.959 24.098 151.836 25.4002 153.149 25.4002C154.322 25.4002 155.151 24.254 155.151 22.8958V21.3235ZM168.851 27.0886C166.401 27.0886 164.812 25.0302 164.812 22.2356C164.812 19.3231 166.435 17.2467 168.99 17.2467C171.407 17.2467 173.03 19.207 173.03 22.0816C173.032 25.0302 171.358 27.0886 168.851 27.0886ZM168.92 18.779C167.575 18.779 166.712 20.1952 166.712 22.1756C166.712 24.118 167.593 25.5343 168.902 25.5343C170.215 25.5343 171.094 24.02 171.094 22.1356C171.098 20.2152 170.235 18.779 168.92 18.779ZM183.058 26.8745H181.191V21.4575C181.191 19.7892 180.622 18.953 179.499 18.953C178.394 18.953 177.637 20.0212 177.637 21.2634V26.8745H175.77V20.1372C175.77 19.3031 175.752 18.4089 175.701 17.4387H177.341L177.428 18.895H177.48C177.98 17.8868 178.999 17.2447 180.138 17.2447C181.9 17.2447 183.058 18.759 183.058 21.2234V26.8745ZM195.603 19.013H193.552V23.5939C193.552 24.7601 193.911 25.3422 194.637 25.3422C194.966 25.3422 195.242 25.3022 195.464 25.2442L195.516 26.8365C195.155 26.9925 194.671 27.0706 194.069 27.0706C192.6 27.0706 191.721 26.1584 191.721 23.7699V19.013H190.497V17.4407H191.721V15.7124L193.552 15.0903V17.4387H195.603V19.013ZM205.474 26.8745H203.611V21.4975C203.611 19.8092 203.044 18.955 201.919 18.955C200.953 18.955 200.053 19.6931 200.053 21.1874V26.8745H198.19V13.1119H200.053V18.779H200.09C200.677 17.7508 201.528 17.2447 202.613 17.2447C204.389 17.2447 205.474 18.797 205.474 21.2634V26.8745ZM215.587 22.6617H209.991C210.027 24.4481 211.079 25.4562 212.635 25.4562C213.463 25.4562 214.224 25.3002 214.897 25.0102L215.187 26.4664C214.393 26.8545 213.459 27.0486 212.372 27.0486C209.748 27.0486 208.194 25.1842 208.194 22.2936C208.194 19.4011 209.785 17.2267 212.162 17.2267C214.306 17.2267 215.651 19.013 215.651 21.7115C215.663 22.03 215.642 22.3489 215.587 22.6617ZM213.877 21.1674C213.877 19.7111 213.224 18.6829 212.032 18.6829C210.961 18.6829 210.114 19.7311 209.993 21.1674H213.877Z" fill="white"/>
</g>
<defs>
<linearGradient id="paint0_linear_35_603" x1="176.069" y1="80.2091" x2="176.069" y2="-208.286" gradientUnits="userSpaceOnUse">
<stop stop-color="#1A1A1A" stop-opacity="0.1"/>
<stop offset="0.123" stop-color="#212121" stop-opacity="0.151"/>
<stop offset="0.308" stop-color="#353535" stop-opacity="0.227"/>
<stop offset="0.532" stop-color="#575757" stop-opacity="0.318"/>
<stop offset="0.783" stop-color="#858585" stop-opacity="0.421"/>
<stop offset="1" stop-color="#B3B3B3" stop-opacity="0.51"/>
</linearGradient>
<clipPath id="clip0_35_603">
<rect width="240" height="80" fill="white"/>
</clipPath>
</defs>
</svg>
