<svg width="18" height="20" viewBox="0 0 18 20" fill="none" xmlns="http://www.w3.org/2000/svg">
<g clip-path="url(#clip0_384_1963)">
<path d="M5.4834 10.2344C6.26005 10.2344 6.88965 9.53482 6.88965 8.67188C6.88965 7.80893 6.26005 7.10938 5.4834 7.10938C4.70675 7.10938 4.07715 7.80893 4.07715 8.67188C4.07715 9.53482 4.70675 10.2344 5.4834 10.2344Z" fill="#0A6AA6"/>
<path d="M12.5146 10.2344C13.2913 10.2344 13.9209 9.53482 13.9209 8.67188C13.9209 7.80893 13.2913 7.10938 12.5146 7.10938C11.738 7.10938 11.1084 7.80893 11.1084 8.67188C11.1084 9.53482 11.738 10.2344 12.5146 10.2344Z" fill="#0A6AA6"/>
<path d="M16.0729 8.26625C15.9517 2.99094 12.4602 0.625 8.99944 0.625C5.53922 0.625 2.04778 2.99094 1.926 8.26625C0.991408 8.40531 0.562502 9.26906 0.562502 10.0763C0.561939 10.555 0.701439 10.9981 0.955127 11.3247C1.13147 11.5525 1.4386 11.8172 1.93444 11.8881C2.05313 13.3803 3.1005 15.2647 5.53472 16.2003C5.57381 16.2484 5.61656 16.2931 5.65875 16.3381C5.95688 18.0647 7.34063 19.375 8.99944 19.375C10.6594 19.375 12.0426 18.0641 12.3404 16.3378C12.3826 16.2925 12.4256 16.2481 12.4644 16.2C14.8984 15.2644 15.946 13.3803 16.0647 11.8872C17.0058 11.7522 17.4375 10.8856 17.4375 10.0766C17.4375 9.26906 17.0086 8.40531 16.0729 8.26625ZM8.99944 18.9178C7.34597 18.9178 6.00553 17.4525 6.00553 15.6438C6.00553 14.2528 6.79978 14.0575 7.91831 14.0409C7.938 13.8694 8.05725 13.7347 8.20772 13.7347H9.79144C9.94191 13.7347 10.0612 13.8697 10.0803 14.0409C11.1988 14.0575 11.9936 14.2534 11.9936 15.6438C11.9939 17.4525 10.6529 18.9178 8.99944 18.9178ZM12.3981 15.5553C12.3584 13.8653 11.2328 13.6322 10.4167 13.5931C10.136 13.1322 9.60863 12.8197 8.99944 12.8197C8.39138 12.8197 7.86347 13.1322 7.58278 13.5931C6.7666 13.6322 5.64103 13.8653 5.60138 15.5553C5.29003 15.0347 5.12128 14.4006 5.12128 13.6625C5.12128 12.4431 5.54963 12.2044 6.29016 12.2044C6.60769 12.2044 6.98456 12.2525 7.38338 12.3038C7.87388 12.3672 8.42991 12.4388 9.01041 12.4388C9.59147 12.4388 10.1464 12.3672 10.6363 12.3038C11.0323 12.2525 11.4064 12.2044 11.7211 12.2044C12.4715 12.2044 12.8779 12.4369 12.8779 13.6625C12.8782 14.4006 12.7094 15.0341 12.3981 15.5553ZM15.8043 11.2956H15.5318V11.6003C15.5318 12.79 14.8005 14.3519 12.9895 15.3081C13.1839 14.8234 13.2863 14.2719 13.2863 13.6625C13.2863 12.3197 12.8183 11.7472 11.7214 11.7472C11.383 11.7472 10.998 11.7966 10.5899 11.8497C10.1109 11.9112 9.56813 11.9816 9.01069 11.9816C8.45381 11.9816 7.90988 11.9112 7.42978 11.8497C7.01944 11.7972 6.63103 11.7472 6.29044 11.7472C5.5561 11.7472 4.71291 11.965 4.71291 13.6625C4.71291 14.2716 4.81556 14.8234 5.01019 15.3081C3.19866 14.3516 2.46741 12.7897 2.46741 11.6003V11.2956H2.19516C1.83656 11.2956 1.55728 11.1706 1.36575 10.9241C1.19869 10.7087 1.107 10.4078 1.107 10.0766C1.107 9.48687 1.39275 8.85687 2.19516 8.85687H2.46713V8.55187C2.46713 5.70344 3.447 3.825 4.81444 2.685C5.85 4.06969 6.94913 4.89 9.27225 4.89344C8.18353 3.97875 8.72775 2.75906 8.72775 2.75906C8.72775 2.75906 10.9052 4.28344 12.8104 3.67375C12.8104 3.67375 11.7217 3.36875 11.4497 2.45438C11.4497 2.45438 12.2628 2.68156 13.0109 2.54625C14.4689 3.67 15.5323 5.58375 15.5323 8.55187V8.85687H15.8048C16.6075 8.85687 16.8936 9.48719 16.8936 10.0766C16.893 10.6659 16.607 11.2956 15.8043 11.2956Z" fill="#0A6AA6"/>
<path d="M10.0901 14.6381H10.0878V14.9078C10.0878 15.1012 9.9548 15.2587 9.79112 15.2587H8.2074C8.04315 15.2587 7.91012 15.1012 7.91012 14.9078V14.6381H7.90787C7.22893 14.6381 6.7373 14.7791 6.7373 15.6441C6.7373 16.93 7.82321 17.8109 8.99884 17.8109C10.175 17.8109 11.2609 16.9303 11.2609 15.6441C11.2612 14.7791 10.769 14.6381 10.0901 14.6381ZM10.0226 17.0722C9.70393 17.1309 9.36446 17.1644 8.99912 17.1644C8.63434 17.1644 8.29487 17.1309 7.97621 17.0722C7.49668 16.7872 7.14568 16.2959 7.14568 15.6441C7.14568 15.3534 7.16537 15.1816 7.52677 15.1203C7.60862 15.4634 7.88284 15.7166 8.2074 15.7166H8.2898C8.51513 15.8175 8.75589 15.8691 8.99884 15.8684C9.24197 15.8691 9.48293 15.8176 9.70843 15.7166H9.79084C10.1154 15.7166 10.3891 15.4637 10.4709 15.1209C10.5665 15.1375 10.6537 15.1637 10.7159 15.2062C10.7569 15.2344 10.8526 15.3003 10.8526 15.6437C10.8531 16.2956 10.5021 16.7872 10.0226 17.0722ZM10.1747 10.8791H7.82377C7.23624 10.8791 7.82377 11.8159 8.9994 11.8159C10.1747 11.8153 10.7631 10.8791 10.1747 10.8791Z" fill="#0A6AA6"/>
</g>
<defs>
<clipPath id="clip0_384_1963">
<rect width="18" height="20" fill="white"/>
</clipPath>
</defs>
</svg>
