<svg width="18" height="20" viewBox="0 0 18 20" fill="none" xmlns="http://www.w3.org/2000/svg">
<path fill-rule="evenodd" clip-rule="evenodd" d="M7.5 12.9167C7.5 12.4746 7.65804 12.0507 7.93934 11.7382C8.22064 11.4256 8.60218 11.25 9 11.25C9.39782 11.25 9.77936 11.4256 10.0607 11.7382C10.342 12.0507 10.5 12.4746 10.5 12.9167V13.75C10.5 14.192 10.342 14.616 10.0607 14.9285C9.77936 15.2411 9.39782 15.4167 9 15.4167C8.60218 15.4167 8.22064 15.2411 7.93934 14.9285C7.65804 14.616 7.5 14.192 7.5 13.75V12.9167ZM9 12.0833C8.80109 12.0833 8.61032 12.1711 8.46967 12.3274C8.32902 12.4837 8.25 12.6957 8.25 12.9167V13.75C8.25 13.971 8.32902 14.183 8.46967 14.3393C8.61032 14.4955 8.80109 14.5833 9 14.5833C9.19891 14.5833 9.38968 14.4955 9.53033 14.3393C9.67098 14.183 9.75 13.971 9.75 13.75V12.9167C9.75 12.6957 9.67098 12.4837 9.53033 12.3274C9.38968 12.1711 9.19891 12.0833 9 12.0833Z" fill="#0A6AA6"/>
<path d="M11.8911 6.88209C11.2341 6.47875 10.6548 6.03625 10.3803 5.75292L9.86989 6.3625C10.2096 6.71375 10.8501 7.19459 11.5285 7.61125C12.2039 8.02584 12.9726 8.41167 13.5723 8.53459L13.7084 7.71542C13.2325 7.6175 12.5508 7.28709 11.8911 6.88209ZM7.75939 5.7525C7.48527 6.03584 6.90589 6.47875 6.24889 6.88167C5.58927 7.28709 4.90752 7.6175 4.43164 7.715L4.56814 8.53459C5.16739 8.41167 5.93614 8.02625 6.61189 7.61125C7.29027 7.19459 7.93077 6.71375 8.27014 6.3625L7.75939 5.7525ZM8.35114 9.77667C8.37739 9.59584 8.30727 9.42584 8.20789 9.29125C8.10664 9.15459 7.95852 9.03084 7.77964 8.92959C7.42114 8.72667 6.91189 8.59792 6.31189 8.645C5.69877 8.69292 5.25964 8.96 4.99977 9.29875C4.74777 9.62667 4.65102 10.0496 4.79352 10.3721C4.80545 10.399 4.8225 10.4228 4.84347 10.4417C4.86445 10.4607 4.88886 10.4744 4.91504 10.4818C4.94122 10.4893 4.96855 10.4904 4.99514 10.4851C5.02174 10.4797 5.04698 10.468 5.06914 10.4508C5.98527 9.73667 7.08289 9.58167 8.10964 9.94209C8.13531 9.95108 8.16242 9.95383 8.18913 9.95015C8.21584 9.94647 8.24153 9.93644 8.26444 9.92075C8.28735 9.90505 8.30695 9.88406 8.32191 9.8592C8.33687 9.83434 8.34684 9.80619 8.35114 9.77667ZM9.65239 9.80084C9.62614 9.62459 9.69477 9.45959 9.79077 9.33C9.88827 9.19834 10.0308 9.08 10.2018 8.98292C10.5453 8.78834 11.0328 8.665 11.6065 8.71C12.193 8.75625 12.6141 9.01209 12.8639 9.33709C13.1054 9.65167 13.1999 10.0592 13.0619 10.3713C13.05 10.3983 13.0329 10.4221 13.0119 10.4411C12.9909 10.4601 12.9664 10.4738 12.9402 10.4812C12.914 10.4887 12.8866 10.4898 12.86 10.4844C12.8333 10.479 12.8081 10.4673 12.7859 10.45C11.9144 9.77084 10.8704 9.62334 9.89352 9.96625C9.86782 9.97525 9.84068 9.97799 9.81395 9.97428C9.78721 9.97057 9.76151 9.96051 9.7386 9.94477C9.71568 9.92903 9.69608 9.90799 9.68114 9.88308C9.6662 9.85817 9.65627 9.82998 9.65202 9.80042" fill="#0A6AA6"/>
<path fill-rule="evenodd" clip-rule="evenodd" d="M4.14263 15.92C3.82163 16.0075 3.54301 16.1058 3.31951 16.2158C3.14963 16.2992 2.99063 16.4 2.86838 16.5242C2.74726 16.6479 2.62501 16.835 2.62501 17.0833C2.62501 17.3317 2.74726 17.5187 2.86876 17.6425C2.99063 17.7667 3.14963 17.8675 3.31951 17.9508C3.66188 18.1196 4.13401 18.2612 4.68826 18.3767C5.80313 18.6092 7.32713 18.75 9.00001 18.75C10.6729 18.75 12.1969 18.6092 13.3118 18.3767C13.866 18.2612 14.3381 18.1196 14.6805 17.9508C14.8504 17.8675 15.0094 17.7667 15.1313 17.6425C15.2528 17.5187 15.375 17.3317 15.375 17.0833C15.375 16.835 15.2528 16.6479 15.1313 16.5242C15.0094 16.4 14.8504 16.2992 14.6805 16.2158C14.4596 16.1071 14.1848 16.0096 13.869 15.9229C13.8773 15.6729 13.877 15.4303 13.8683 15.195C15.0776 13.7997 15.7523 11.9372 15.75 10C15.75 5.85792 12.7279 2.5 9.00001 2.5C5.27213 2.5 2.25001 5.85792 2.25001 10C2.24766 11.9335 2.9197 13.7929 4.12501 15.1875C4.12376 15.4247 4.12963 15.6689 4.14263 15.92ZM9.00001 16.6667C9.85763 16.6667 10.6733 16.4667 11.4113 16.1067C11.5369 15.3071 11.541 14.6283 11.4488 14.0033C11.3385 13.2596 11.0888 12.5692 10.7138 11.8229C10.566 11.5292 10.4906 11.2504 10.5011 10.9883C10.5084 10.7457 10.599 10.5153 10.7543 10.3446C10.8726 10.2179 11.0155 10.1231 11.172 10.0675C11.2813 10.0258 11.3958 10.003 11.5114 10C11.9228 10 12.2119 10.2321 12.3968 10.4612C12.5486 10.6496 12.6525 10.8667 12.7005 10.9683L12.7193 11.0071C13.2105 11.9842 13.5806 12.9558 13.758 14.0613C14.5651 12.8975 15.0019 11.4692 15 10C15 6.31792 12.3139 3.33333 9.00001 3.33333C5.68613 3.33333 3.00001 6.31792 3.00001 10C2.99786 11.4432 3.41913 12.8479 4.20001 14.0013C4.33501 12.9283 4.65413 11.9692 5.17763 10.9967C5.18288 10.9869 5.18963 10.9735 5.19788 10.9563C5.30288 10.7446 5.67151 10 6.44288 10C6.53401 10 6.66113 10.02 6.79088 10.065C6.92213 10.11 7.08638 10.1908 7.22588 10.335C7.37363 10.4867 7.48726 10.7046 7.49888 10.9871C7.51013 11.2567 7.42726 11.5396 7.26901 11.8333C6.87601 12.5637 6.65888 13.2433 6.58838 13.98C6.52688 14.6246 6.57638 15.3312 6.73688 16.1758C7.45533 16.5015 8.22407 16.6682 9.00001 16.6667ZM6.63901 17.0283C6.58854 17.0604 6.53207 17.079 6.47403 17.0826C6.416 17.0862 6.358 17.0748 6.30461 17.0493C6.25122 17.0238 6.20391 16.9848 6.16641 16.9354C6.1289 16.8861 6.10223 16.8278 6.08851 16.765C5.85301 15.6883 5.75963 14.7621 5.84251 13.8921C5.92613 13.0171 6.18563 12.2225 6.62513 11.4058C6.73838 11.1958 6.75188 11.0767 6.74963 11.0258C6.74963 11.0106 6.7466 10.9955 6.74077 10.9817C6.73494 10.9678 6.72644 10.9556 6.71588 10.9458C6.67275 10.9062 6.62251 10.8772 6.56851 10.8608C6.52769 10.847 6.48573 10.8378 6.44326 10.8333C6.13651 10.8333 5.98501 11.1179 5.84776 11.375L5.84101 11.3875L5.82151 11.4242C5.01901 12.915 4.74451 14.3575 4.93088 16.43C4.93876 16.5182 4.92112 16.6069 4.88053 16.6832C4.83993 16.7595 4.7785 16.8194 4.70515 16.8543C4.6318 16.8891 4.55037 16.8971 4.47267 16.877C4.39498 16.8569 4.32508 16.8098 4.27313 16.7425C4.00501 16.8175 3.78713 16.8971 3.62363 16.9775C3.54413 17.0167 3.48488 17.0525 3.44176 17.0833C3.48488 17.1142 3.54413 17.15 3.62363 17.1892C3.88838 17.3196 4.29488 17.4471 4.82663 17.5579C5.88338 17.7779 7.35901 17.9167 9.00001 17.9167C10.641 17.9167 12.1166 17.7779 13.1738 17.5579C13.7051 17.4471 14.1116 17.3196 14.3764 17.1887C14.4559 17.15 14.5151 17.1137 14.5583 17.0833C14.4999 17.0435 14.4391 17.0081 14.3764 16.9775C14.2159 16.8983 14.0033 16.8204 13.7423 16.7467C13.6901 16.8132 13.6203 16.8596 13.5429 16.8792C13.4655 16.8988 13.3844 16.8905 13.3115 16.8555C13.2386 16.8205 13.1776 16.7607 13.1374 16.6846C13.0971 16.6086 13.0796 16.5203 13.0875 16.4325C13.2593 14.3879 12.8303 12.9375 12.0649 11.4133C12.0529 11.39 12.0411 11.3661 12.0296 11.3417C11.9779 11.235 11.9231 11.1229 11.8384 11.0175C11.7431 10.8992 11.6415 10.8333 11.5114 10.8333C11.5088 10.8333 11.466 10.8375 11.409 10.8583C11.3625 10.8738 11.3195 10.9002 11.283 10.9358C11.2722 10.9472 11.2637 10.961 11.2581 10.9763C11.2525 10.9916 11.2499 11.0081 11.2504 11.0246C11.2478 11.0829 11.2628 11.2063 11.3685 11.4163C11.7705 12.2171 12.0604 13.0004 12.1886 13.8683C12.3173 14.7375 12.2805 15.6675 12.0574 16.7587C12.0432 16.828 12.0134 16.8921 11.9707 16.9449C11.928 16.9977 11.8738 17.0375 11.8134 17.0606C11.7529 17.0836 11.6882 17.0891 11.6253 17.0766C11.5624 17.064 11.5034 17.0338 11.454 16.9887C10.6717 17.3272 9.8395 17.5006 9.00001 17.5C8.16938 17.5 7.37401 17.3333 6.63901 17.0283Z" fill="#0A6AA6"/>
</svg>
