<?xml version="1.0" encoding="utf-8"?>
<svg version="1.1" id="Layer_1" xmlns="http://www.w3.org/2000/svg" x="0px" y="0px" viewBox="0 0 2560 1600" enable-background="new 0 0 2560 1600">
  <g transform="matrix(1, 0, 0, 1, -109.04072, 27.26018)" style="">
    <g id="flugroute" transform="matrix(0.982647, 0.191007, -0.190809, 0.981627, 1.134598, -0.00001)" style="transform-origin: 1448.49px 800.066px;">
      <g>
        <path fill="none" stroke-width="9.2949" stroke-miterlimit="10" d="M356.6198,1025.0149 c0,0,2.6119,2.7389,7.5227,7.7954" style="paint-order: fill; stroke: rgb(230, 140, 199);"/>
        <path fill="none" stroke-width="9.2949" stroke-miterlimit="10" stroke-dasharray="21.5847,21.5847" d=" M379.2375,1048.2212c82.7094,83.6327,373.4702,367.6454,559.3068,421.6799c218.471,63.5555,554.0396-9.1215,742.6956-289.1621 c188.6747-280.0407,266.2314-348.3739,371.4874-443.7089c105.2559-95.335,186.6917-228.4011,196.6216-405.1659 c9.9302-176.7647-114.2375-288.1799-274.0793-291.9567c-164.3497-3.8853-237.5103,144.8119-259.0248,200.2065" style="paint-order: fill; stroke: rgb(230, 140, 199);"/>
        <path fill="none" stroke-width="9.2949" stroke-miterlimit="10" d="M1712.5017,250.2549 c-2.3052,6.5374-3.3772,10.2957-3.3772,10.2957s-0.9667-3.7831-3.1478-10.3639" style="paint-order: fill; stroke: rgb(230, 140, 199);"/>
        <path fill="none" stroke-width="9.2949" stroke-miterlimit="10" stroke-dasharray="21.7777,21.7777" d=" M1698.3734,229.7843c-25.3441-61.8298-100.5431-194.9487-277.2273-190.8372 c-228.5157,5.3167-295.9319,215.4719-287.9878,306.8317c7.944,91.3598,71.5027,311.8138,287.9878,466.7292 c216.4821,154.9155,321.0468,363.5865,368.6987,429.1158c47.652,65.5292,230.2198,210.3999,460.0367,266.0115 c157.041,38.0007,235.0657,49.1082,268.7412,52.3303" style="paint-order: fill; stroke: rgb(230, 140, 199);"/>
        <path fill="none" stroke-width="9.2949" stroke-miterlimit="10" d="M2529.5259,1560.8674 c7.656,0.505,10.8254,0.4027,10.8254,0.4027" style="paint-order: fill; stroke: rgb(230, 140, 199);"/>
      </g>
    </g>
  </g>
</svg>