<svg width="18" height="20" viewBox="0 0 18 20" fill="none" xmlns="http://www.w3.org/2000/svg">
<path d="M15 6.66667C15 7.04969 14.9321 7.42896 14.8002 7.78283C14.6683 8.13669 14.4749 8.45822 14.2312 8.72906C13.9874 8.9999 13.698 9.21474 13.3795 9.36132C13.0611 9.50789 12.7197 9.58333 12.375 9.58333C12.0303 9.58333 11.6889 9.50789 11.3705 9.36132C11.052 9.21474 10.7626 8.9999 10.5188 8.72906C10.2751 8.45822 10.0817 8.13669 9.94982 7.78283C9.8179 7.42896 9.75 7.04969 9.75 6.66667C9.75 5.89312 10.0266 5.15125 10.5188 4.60427C11.0111 4.05729 11.6788 3.75 12.375 3.75C13.0712 3.75 13.7389 4.05729 14.2312 4.60427C14.7234 5.15125 15 5.89312 15 6.66667Z" stroke="#0A6AA6" stroke-width="1.5" stroke-linecap="round" stroke-linejoin="round"/>
<path d="M11.1233 4.1025C10.9294 3.44299 10.5305 2.88177 9.99798 2.5195C9.46547 2.15723 8.83422 2.01759 8.21744 2.12564C7.60066 2.23369 7.0387 2.58235 6.63233 3.1091C6.22597 3.63585 6.00179 4.30622 6 5C5.99993 5.50546 6.11808 6.00227 6.34287 6.44171C6.56767 6.88116 6.89138 7.24814 7.28229 7.50669C7.67319 7.76524 8.11785 7.90648 8.57268 7.91656C9.02751 7.92663 9.47689 7.8052 9.87675 7.56416M3 11.25H4.79625C5.01675 11.25 5.23425 11.305 5.4315 11.4117L6.963 12.235C7.16025 12.3408 7.37775 12.3958 7.599 12.3958H8.3805C9.1365 12.3958 9.75 13.055 9.75 13.8683C9.75 13.9017 9.72975 13.93 9.7005 13.9392L7.79475 14.525C7.45279 14.63 7.08815 14.5932 6.76875 14.4217L5.1315 13.5417M9.75 13.3333L13.1948 12.1575C13.4946 12.0553 13.8159 12.0609 14.1128 12.1736C14.4096 12.2862 14.6669 12.5002 14.8478 12.785C15.1245 13.21 15.012 13.82 14.6085 14.0783L8.97225 17.6925C8.79601 17.8058 8.60086 17.878 8.39868 17.9048C8.1965 17.9316 7.99153 17.9124 7.79625 17.8483L3 16.2667" stroke="#0A6AA6" stroke-width="1.5" stroke-linecap="round" stroke-linejoin="round"/>
</svg>
