<svg width="20" height="20" viewBox="0 0 20 20" fill="none" xmlns="http://www.w3.org/2000/svg">
<path d="M16.1176 10.0588H7.73529M14.3529 12.7059L17 10.0588L14.3529 7.41176M9.94118 5.64706V4.76471C9.94118 4.29668 9.75525 3.84782 9.42431 3.51687C9.09336 3.18592 8.6445 3 8.17647 3H3.76471C3.29668 3 2.84782 3.18592 2.51687 3.51687C2.18592 3.84782 2 4.29668 2 4.76471V15.3529C2 15.821 2.18592 16.2698 2.51687 16.6008C2.84782 16.9317 3.29668 17.1176 3.76471 17.1176H8.17647C8.6445 17.1176 9.09336 16.9317 9.42431 16.6008C9.75525 16.2698 9.94118 15.821 9.94118 15.3529V14.4706" stroke="#0A6AA6" stroke-width="1.5" stroke-linecap="round" stroke-linejoin="round"/>
</svg>
