<svg width="20" height="21" viewBox="0 0 20 21" fill="none" xmlns="http://www.w3.org/2000/svg">
<path d="M3.65238 9.08689L4.39799 9.16795L3.65238 9.08689ZM3.64532 9.15129L4.39064 9.23498L3.64532 9.15129ZM2.43908 12.7602L3.08584 13.1399L2.43908 12.7602ZM2.47166 12.7046L3.11977 13.082L2.47166 12.7046ZM16.3476 9.08689L17.0932 9.00582L16.3476 9.08689ZM16.3547 9.15129L15.6094 9.23498L16.3547 9.15129ZM17.5609 12.7602L18.2077 12.3804V12.3804L17.5609 12.7602ZM17.5283 12.7046L16.8802 13.082L17.5283 12.7046ZM1.38662 16.3865L0.899106 16.9564L1.38662 16.3865ZM1.8069 13.8369L1.16014 13.4572H1.16014L1.8069 13.8369ZM1.00829 15.7036L1.74951 15.5892L1.00829 15.7036ZM18.6134 16.3865L19.1009 16.9564L18.6134 16.3865ZM18.1931 13.8369L17.5463 14.2166V14.2166L18.1931 13.8369ZM18.9917 15.7036L18.2505 15.5892L18.9917 15.7036ZM16.0722 6.55406L15.3266 6.63512L16.0722 6.55406ZM3.92777 6.55405L3.18216 6.47299L3.92777 6.55405ZM7.56253 16.9362C7.47171 16.5321 7.07046 16.2781 6.66633 16.3689C6.2622 16.4598 6.00821 16.861 6.09904 17.2651L7.56253 16.9362ZM13.901 17.2651C13.9918 16.861 13.7378 16.4598 13.3337 16.3689C12.9295 16.2781 12.5283 16.5321 12.4375 16.9362L13.901 17.2651ZM16.6361 15.8971H3.36386V17.3971H16.6361V15.8971ZM15.3266 6.63512L15.602 9.16795L17.0932 9.00582L16.8178 6.47299L15.3266 6.63512ZM4.39799 9.16795L4.67337 6.63512L3.18216 6.47299L2.90677 9.00582L4.39799 9.16795ZM2.45366 14.2166L3.08584 13.1399L1.79231 12.3804L1.16014 13.4572L2.45366 14.2166ZM16.9142 13.1399L17.5463 14.2166L18.8399 13.4572L18.2077 12.3804L16.9142 13.1399ZM2.90677 9.00582C2.90321 9.03862 2.90162 9.05324 2.90001 9.0676L4.39064 9.23498C4.39261 9.2174 4.39453 9.19973 4.39799 9.16795L2.90677 9.00582ZM3.08584 13.1399C3.10193 13.1125 3.1109 13.0972 3.11977 13.082L1.82355 12.3271C1.81633 12.3395 1.80893 12.3521 1.79231 12.3804L3.08584 13.1399ZM2.90001 9.0676C2.77055 10.2205 2.40341 11.3314 1.82355 12.3271L3.11977 13.082C3.80514 11.9051 4.23804 10.5939 4.39064 9.23498L2.90001 9.0676ZM15.602 9.16795C15.6055 9.19973 15.6074 9.2174 15.6094 9.23498L17.1 9.0676C17.0984 9.05324 17.0968 9.03862 17.0932 9.00582L15.602 9.16795ZM18.2077 12.3804C18.191 12.3521 18.1837 12.3395 18.1765 12.3271L16.8802 13.082C16.8891 13.0972 16.8981 13.1125 16.9142 13.1399L18.2077 12.3804ZM15.6094 9.23498C15.762 10.5939 16.1949 11.9051 16.8802 13.082L18.1765 12.3271C17.5966 11.3314 17.2295 10.2205 17.1 9.0676L15.6094 9.23498ZM3.36386 15.8971C2.78962 15.8971 2.41742 15.8961 2.14805 15.8684C1.87541 15.8404 1.84927 15.7952 1.87413 15.8165L0.899106 16.9564C1.22864 17.2383 1.63359 17.3234 1.99464 17.3605C2.35896 17.398 2.82305 17.3971 3.36386 17.3971V15.8971ZM1.16014 13.4572C0.881454 13.9318 0.643084 14.336 0.488095 14.6723C0.33467 15.0053 0.201698 15.3946 0.267073 15.818L1.74951 15.5892C1.75296 15.6115 1.73245 15.5561 1.85039 15.3002C1.96676 15.0477 2.15866 14.7191 2.45366 14.2166L1.16014 13.4572ZM1.87413 15.8165C1.80954 15.7613 1.7637 15.6811 1.74951 15.5892L0.267073 15.818C0.335282 16.2598 0.558244 16.6648 0.899106 16.9564L1.87413 15.8165ZM16.6361 17.3971C17.1769 17.3971 17.641 17.398 18.0054 17.3605C18.3664 17.3234 18.7714 17.2383 19.1009 16.9564L18.1259 15.8165C18.1507 15.7952 18.1246 15.8404 17.8519 15.8684C17.5826 15.8961 17.2104 15.8971 16.6361 15.8971V17.3971ZM17.5463 14.2166C17.8413 14.7191 18.0332 15.0477 18.1496 15.3002C18.2676 15.5561 18.247 15.6115 18.2505 15.5892L19.7329 15.818C19.7983 15.3946 19.6653 15.0053 19.5119 14.6723C19.3569 14.336 19.1185 13.9318 18.8399 13.4571L17.5463 14.2166ZM19.1009 16.9564C19.4418 16.6648 19.6647 16.2598 19.7329 15.818L18.2505 15.5892C18.2363 15.6811 18.1905 15.7613 18.1259 15.8165L19.1009 16.9564ZM10 1.75C12.7175 1.75 15.0228 3.84088 15.3266 6.63512L16.8178 6.47299C16.4341 2.94337 13.5088 0.25 10 0.25V1.75ZM10 0.25C6.49118 0.25 3.56593 2.94337 3.18216 6.47299L4.67337 6.63512C4.97719 3.84088 7.28254 1.75 10 1.75V0.25ZM6.09904 17.2651C6.31616 18.2312 6.79917 19.1072 7.4964 19.745L8.50889 18.6383C8.0601 18.2277 7.71928 17.6337 7.56253 16.9362L6.09904 17.2651ZM7.4964 19.745C8.19632 20.3853 9.07551 20.75 10 20.75V19.25C9.47996 19.25 8.95499 19.0464 8.50889 18.6383L7.4964 19.745ZM10 20.75C10.9245 20.75 11.8037 20.3853 12.5036 19.745L11.4911 18.6383C11.045 19.0464 10.52 19.25 10 19.25V20.75ZM12.5036 19.745C13.2008 19.1072 13.6838 18.2312 13.901 17.2651L12.4375 16.9362C12.2807 17.6337 11.9399 18.2277 11.4911 18.6383L12.5036 19.745Z" fill="#0A6AA6"/>
</svg>
