<svg width="18" height="20" viewBox="0 0 18 20" fill="none" xmlns="http://www.w3.org/2000/svg">
<g clip-path="url(#clip0_529_2674)">
<path d="M10.1941 4.69429V2.14287C10.1941 1.76399 10.0587 1.40062 9.81757 1.13271C9.57645 0.864804 9.24943 0.714294 8.90844 0.714294H1.92829C1.5873 0.714294 1.26027 0.864804 1.01916 1.13271C0.778037 1.40062 0.642578 1.76399 0.642578 2.14287V9.89858C0.642578 10.2775 0.778037 10.6408 1.01916 10.9087C1.26027 11.1766 1.5873 11.3272 1.92829 11.3272H4.22458M9.09101 8.67287H16.0711C16.0711 8.67287 17.3569 8.67287 17.3569 10.1014V17.8572C17.3569 17.8572 17.3569 19.2857 16.0711 19.2857H9.09101C9.09101 19.2857 7.80529 19.2857 7.80529 17.8572V10.1014C7.80529 10.1014 7.80529 8.67287 9.09101 8.67287Z" stroke="#0A6AA6" stroke-linecap="round" stroke-linejoin="round"/>
<path d="M4.14076 5.00716C4.05552 5.00716 3.97376 4.96954 3.91348 4.90256C3.8532 4.83558 3.81934 4.74474 3.81934 4.65002C3.81934 4.5553 3.8532 4.46446 3.91348 4.39748C3.97376 4.3305 4.05552 4.29288 4.14076 4.29288M11.1261 15.9514C11.0408 15.9514 10.959 15.9138 10.8988 15.8468C10.8385 15.7799 10.8046 15.689 10.8046 15.5943C10.8046 15.4996 10.8385 15.4087 10.8988 15.3418C10.959 15.2748 11.0408 15.2372 11.1261 15.2372C11.2113 15.2372 11.2931 15.2748 11.3533 15.3418C11.4136 15.4087 11.4475 15.4996 11.4475 15.5943C11.4475 15.689 11.4136 15.7799 11.3533 15.8468C11.2931 15.9138 11.2113 15.9514 11.1261 15.9514Z" stroke="#0A6AA6" stroke-linecap="round" stroke-linejoin="round"/>
<path d="M4.13965 5.00716C4.2249 5.00716 4.30665 4.96954 4.36693 4.90256C4.42721 4.83558 4.46108 4.74474 4.46108 4.65002C4.46108 4.5553 4.42721 4.46446 4.36693 4.39748C4.30665 4.3305 4.2249 4.29288 4.13965 4.29288M14.0384 13.0072C13.9531 13.0072 13.8714 12.9695 13.8111 12.9026C13.7508 12.8356 13.7169 12.7447 13.7169 12.65C13.7169 12.5553 13.7508 12.4645 13.8111 12.3975C13.8714 12.3305 13.9531 12.2929 14.0384 12.2929" stroke="#0A6AA6" stroke-linecap="round" stroke-linejoin="round"/>
<path d="M14.0371 13.0072C14.1224 13.0072 14.2041 12.9695 14.2644 12.9026C14.3247 12.8356 14.3585 12.7447 14.3585 12.65C14.3585 12.5553 14.3247 12.4645 14.2644 12.3975C14.2041 12.3305 14.1224 12.2929 14.0371 12.2929" stroke="#0A6AA6" stroke-linecap="round" stroke-linejoin="round"/>
</g>
<defs>
<clipPath id="clip0_529_2674">
<rect width="18" height="20" fill="white"/>
</clipPath>
</defs>
</svg>
