<?xml version="1.0" encoding="utf-8"?>
<svg xmlns="http://www.w3.org/2000/svg" viewBox="0 0 500.01 95.43">
  <defs>
    <style>.cls-1{fill:#fff;}</style>
  </defs>
  <title>clouds-bottom</title>
  <g transform="matrix(-1, 0, 0, -1, -68.719865, 153.598666)" style="transform-origin: 133.708px 324.5px;">
    <g id="Layer_1" data-name="Layer 1" transform="matrix(1, 0, 0, 1, -116.291574, 276.779942)">
      <circle class="cls-1" cx="119.88" cy="59.85" r="13.88" style="fill: rgb(244, 251, 253);"/>
      <circle class="cls-1" cx="136.25" cy="51.31" r="13.88" style="fill: rgb(244, 251, 253);"/>
      <rect class="cls-1" y="59.43" width="500" height="36" style="fill: rgb(244, 251, 253);"/>
      <circle class="cls-1" cx="151.92" cy="57.01" r="13.88" style="fill: rgb(244, 251, 253);"/>
      <circle class="cls-1" cx="161.88" cy="65.55" r="13.88" style="fill: rgb(244, 251, 253);"/>
      <circle class="cls-1" cx="402.58" cy="67.75" r="23.58" style="fill: rgb(244, 251, 253);"/>
      <circle class="cls-1" cx="425.4" cy="46.23" r="23.58" style="fill: rgb(244, 251, 253);"/>
      <circle class="cls-1" cx="453.62" cy="48.31" r="23.58" style="fill: rgb(244, 251, 253);"/>
      <ellipse class="cls-1" cx="476.14" cy="58.67" rx="23.86" ry="23.58" style="fill: rgb(244, 251, 253);"/>
      <circle class="cls-1" cx="331.36" cy="58.11" r="34.12" style="fill: rgb(244, 251, 253);"/>
      <circle class="cls-1" cx="286.18" cy="34.13" r="34.12" style="fill: rgb(244, 251, 253);"/>
      <circle class="cls-1" cx="246.26" cy="57.83" r="34.12" style="fill: rgb(244, 251, 253);"/>
      <circle class="cls-1" cx="76.88" cy="61.17" r="13.74" style="fill: rgb(244, 251, 253);"/>
      <circle class="cls-1" cx="59.49" cy="51.56" r="13.74" style="fill: rgb(244, 251, 253);"/>
      <circle class="cls-1" cx="43.49" cy="52.838" r="13.74" style="fill: rgb(244, 251, 253);" transform="matrix(1, 0, 0, 1.216073, 0, -14.385709)"/>
      <circle class="cls-1" cx="28.49" cy="52.56" r="13.74" style="fill: rgb(244, 251, 253);"/>
      <circle class="cls-1" cx="14.49" cy="61.56" r="13.74" style="fill: rgb(244, 251, 253);"/>
      <circle class="cls-1" cx="100.55" cy="58.03" r="11.6" style="fill: rgb(244, 251, 253);"/>
      <circle class="cls-1" cx="197.18" cy="57.45" r="23.58" style="fill: rgb(244, 251, 253);"/>
      <circle class="cls-1" cx="365.49" cy="55.56" r="23.58" style="fill: rgb(244, 251, 253);"/>
    </g>
  </g>
</svg>