<svg width="16" height="24" viewBox="0 0 16 24" fill="none" xmlns="http://www.w3.org/2000/svg">
<path d="M6 19L5.29289 18.2929L4.58579 19L5.29289 19.7071L6 19ZM14.9282 8C14.6521 7.52171 14.0405 7.35783 13.5622 7.63397C13.0839 7.91012 12.92 8.52171 13.1962 9L14.9282 8ZM15 12H16H15ZM8 18C7.44771 18 7 18.4477 7 19C7 19.5523 7.44771 20 8 20V18ZM10 5L10.7071 5.70711L11.4142 5L10.7071 4.29289L10 5ZM1.0718 16C1.34794 16.4783 1.95953 16.6422 2.43782 16.366C2.91611 16.0899 3.07999 15.4783 2.80385 15L1.0718 16ZM1 12H0H1ZM8 6C8.55229 6 9 5.55228 9 5C9 4.44772 8.55229 4 8 4V6ZM9.29289 14.2929L5.29289 18.2929L6.70711 19.7071L10.7071 15.7071L9.29289 14.2929ZM5.29289 19.7071L9.29289 23.7071L10.7071 22.2929L6.70711 18.2929L5.29289 19.7071ZM13.1962 9C13.7228 9.91212 14 10.9468 14 12H16C16 10.5957 15.6304 9.21615 14.9282 8L13.1962 9ZM14 12C14 13.0532 13.7228 14.0879 13.1962 15L14.9282 16C15.6304 14.7838 16 13.4043 16 12H14ZM13.1962 15C12.6695 15.9121 11.9121 16.6695 11 17.1962L12 18.9282C13.2162 18.2261 14.2261 17.2162 14.9282 16L13.1962 15ZM11 17.1962C10.0879 17.7228 9.05322 18 8 18V20C9.40429 20 10.7838 19.6304 12 18.9282L11 17.1962ZM6.70711 9.70711L10.7071 5.70711L9.29289 4.29289L5.29289 8.29289L6.70711 9.70711ZM10.7071 4.29289L6.70711 0.292893L5.29289 1.70711L9.29289 5.70711L10.7071 4.29289ZM2.80385 15C2.27724 14.0879 2 13.0532 2 12H0C0 13.4043 0.36965 14.7838 1.0718 16L2.80385 15ZM2 12C2 10.9468 2.27724 9.91212 2.80385 9L1.0718 8C0.36965 9.21615 5.96046e-08 10.5957 0 12H2ZM2.80385 9C3.33046 8.08788 4.08789 7.33046 5 6.80385L4 5.0718C2.78385 5.77394 1.77394 6.78385 1.0718 8L2.80385 9ZM5 6.80385C5.91212 6.27724 6.94678 6 8 6V4C6.59571 4 5.21615 4.36965 4 5.0718L5 6.80385Z" fill="#0A6AA6"/>
</svg>
